<svg xmlns="http://www.w3.org/2000/svg" xmlns:xlink="http://www.w3.org/1999/xlink" width="1310px" height="800px" viewBox="0 0  1310 800" preserveAspectRatio="xMidYMid meet" ><rect id="svgEditorBackground" x="0" y="0" width="1310" height="800" style="fill: none; stroke: none;"/><defs id="svgEditorDefs"><polygon id="svgEditorShapeDefs" style="fill:rosybrown;stroke:black;vector-effect:non-scaling-stroke;stroke-width:1px;"/><marker id="arrow15-12-right" markerHeight="12" markerUnits="strokeWidth" markerWidth="15" orient="auto" refX="-3" refY="0" viewBox="-15 -5 20 20"><path d="M -15 -5 L 0 0 L -15 5 z" fill="black"/></marker><marker id="arrow20-16-left" markerHeight="16" markerUnits="strokeWidth" markerWidth="20" orient="auto" refX="3" refY="0" viewBox="0 -5 20 20"><path d="M 15 -5 L 0 0 L 15 5 z" fill="black"/></marker><marker id="arrow15-12-left" markerHeight="12" markerUnits="strokeWidth" markerWidth="15" orient="auto" refX="3" refY="0" viewBox="0 -5 20 20"><path d="M 15 -5 L 0 0 L 15 5 z" fill="black"/></marker></defs><ellipse id="e1_ellipse" cx="176.80014038085938" cy="236.30453491210938" style="fill:white;stroke:black;stroke-width:1px;" rx="91" ry="142" transform="matrix(1.50884 -0.00185957 0.00185957 1.50884 -41.5098 10.4921)"/><ellipse id="e2_ellipse" cx="563.7999267578125" cy="227.30467224121094" style="fill:white;stroke:black;stroke-width:1px;" rx="91" ry="142" transform="matrix(1.50884 -0.00185957 0.00185957 1.50884 -41.5098 10.4921)"/><line id="e2_line" x1="232.7999267578125" y1="380.3042297363281" x2="535.7999267578125" y2="70.3046646118164" style="stroke:black;fill:none;stroke-width:1px;" transform="matrix(1.50884 -0.00185957 0.00185957 1.50884 -41.5098 10.4921)"/><line id="e3_line" x1="533.7999267578125" y1="381.3042297363281" x2="201.80001831054688" y2="73.3046646118164" style="stroke:black;fill:none;stroke-width:1px;" transform="matrix(1.50884 -0.00185957 0.00185957 1.50884 -41.5098 10.4921)"/><line id="e4_line" x1="377.7997741699219" y1="391.3042297363281" x2="372.7997741699219" y2="65.30464172363281" style="stroke:red;fill:none;stroke-width:1px;" transform="matrix(1.50884 -0.00185957 0.00185957 1.50884 -41.5098 10.4921)"/><text style="fill:black;font-family:Arial;font-size:20px;" x="142.80014038085938" y="240.30455017089844" id="e5_texte" transform="matrix(1.50884 -0.00185957 0.00185957 1.50884 -41.5098 10.4921)">Class 1</text><text style="fill:black;font-family:Arial;font-size:20px;" x="527.7999267578125" y="234.3046112060547" id="e1_texte" transform="matrix(1.50884 -0.00185957 0.00185957 1.50884 -41.5098 10.4921)"><tspan x="527.7999267578125">Class 0</tspan></text><path d="M5.015394055207237,-5.372042133806476l0,0a0.7500000000000216,0.7500000000000216,0,0,0,-0.9999999999999982,0.5999999999999961v2.3000000000000043a0.7000000000000006,0.7000000000000006,0,0,1,-0.5,0.7000000000000095a0.7000000000000006,0.7000000000000006,0,0,1,0.5,0.7000000000000126v2.300000000000001a0.7500000000000216,0.7500000000000216,0,0,0,0.9999999999999982,0.6000000000000068a0.650000000000035,0.650000000000035,0,0,1,-0.7000000000000002,-0.7000000000000042v-2.2000000000000046a0.6700000000000388,0.6700000000000388,0,0,0,-0.6000000000000005,-0.7000000000000135a0.6700000000000388,0.6700000000000388,0,0,0,0.6000000000000005,-0.7000000000000139v-2.200000000000002a0.650000000000035,0.650000000000035,0,0,1,0.7000000000000002,-0.7000000000000064Z" style="fill:black; stroke:black; vector-effect:non-scaling-stroke;stroke-width:1px;" id="e7_shape" transform="matrix(0.256893 -44.9066 57.9969 0.170285 641.292 844.093)"/><text style="fill:black;font-family:Arial;font-size:20px;" x="188.80015563964844" y="483.3042297363281" id="e8_texte" transform="matrix(1.50884 -0.00185957 0.00185957 1.50884 -41.5098 10.4921)">Any hyperplane here will get the label correct</text><line id="e9_line" x1="474.7999267578125" y1="40.3045768737793" x2="381.7997741699219" y2="110.30470275878906" style="stroke:black;fill:none;stroke-width:2.52px;marker-end:url(#arrow15-12-right);" transform="matrix(1.50884 -0.00185957 0.00185957 1.50884 -41.5098 10.4921)"/><text style="fill:black;font-family:Arial;font-size:20px;" x="492.800048828125" y="35.304561614990234" id="e10_texte" transform="matrix(1.50884 -0.00185957 0.00185957 1.50884 -41.5098 10.4921)"><tspan x="480.8000793457031">The 'best' hyperplane </tspan><tspan x="484.800048828125" dy="1.25em">will be around here</tspan></text><path d="M19.958081816068706,3.7915670308904055l0,0a0.7500000000000216,0.7500000000000216,0,0,0,-1,0.6000000000000094v2.299999999999998a0.7000000000000006,0.7000000000000006,0,0,1,-0.5,0.7000000000000073a0.7000000000000006,0.7000000000000006,0,0,1,0.5,0.700000000000002v2.3000000000000007a0.7500000000000216,0.7500000000000216,0,0,0,1,0.5999999999999961a0.6500000000000486,0.6500000000000486,0,0,1,-0.6999999999999922,-0.699999999999994v-2.200000000000001a0.6700000000000583,0.6700000000000583,0,0,0,-0.6000000000000085,-0.7000000000000002a0.6700000000000583,0.6700000000000583,0,0,0,0.6000000000000085,-0.7000000000000091v-2.2000000000000046a0.6500000000000486,0.6500000000000486,0,0,1,0.6999999999999922,-0.7000000000000028Z" style="fill:red; stroke:red; vector-effect:non-scaling-stroke;stroke-width:1px;" id="e1_shape" transform="matrix(-44.8995 -0.903598 0.91973 -62.0371 1839.16 831.093)"/><text style="fill:black;font-family:Arial;font-size:20px;" x="744.7999267578125" y="235.3045654296875" id="e2_texte" transform="matrix(1.50884 -0.00185957 0.00185957 1.50884 -41.5098 10.4921)"><tspan x="724.7999267578125">Example of 'nice' </tspan><tspan x="725.7999267578125" dy="1.25em">data structure</tspan></text><path d="M545.0187690491819,222.50225945499443c-14.451659772846824,141.4801111283765,5.1007954507291515,190.29321561623033,92.72194105500193,191.5139430301524" style="fill: none; stroke: black; stroke-width: 2.52px;marker-end:url(#arrow15-12-right);" id="e13_arc3" transform="matrix(-0.498489 -1.43842 1.57517 -0.455566 61.2782 1535.65)"/><text style="fill:black;font-family:Arial;font-size:20px;" x="42.80015563964844" y="394.3042297363281" id="e18_texte" transform="matrix(1.50884 -0.00185957 0.00185957 1.50884 -41.5098 10.4921)"><tspan x="42.80015563964844">Example </tspan><tspan x="42.80015563964844" dy="1.25em">area </tspan><tspan x="42.80015563964844" dy="1.25em">near </tspan><tspan x="42.80015563964844" dy="1.25em">classes</tspan></text><ellipse id="e3_ellipse" cx="176.80014038085938" cy="236.30453491210938" style="fill:white;stroke:black;stroke-width:1px;" rx="91" ry="142" transform="matrix(1.50884 -0.00185957 0.00185957 1.50884 -41.5098 10.4921)"/><ellipse id="e4_ellipse" cx="563.7999267578125" cy="227.30467224121094" style="fill:white;stroke:black;stroke-width:1px;" rx="91" ry="142" transform="matrix(1.50884 -0.00185957 0.00185957 1.50884 -41.5098 10.4921)"/><line id="e5_line" x1="232.7999267578125" y1="380.3042297363281" x2="535.7999267578125" y2="70.3046646118164" style="stroke:black;fill:none;stroke-width:1px;" transform="matrix(1.50884 -0.00185957 0.00185957 1.50884 -41.5098 10.4921)"/><line id="e6_line" x1="533.7999267578125" y1="381.3042297363281" x2="201.80001831054688" y2="73.3046646118164" style="stroke:black;fill:none;stroke-width:1px;" transform="matrix(1.50884 -0.00185957 0.00185957 1.50884 -41.5098 10.4921)"/><line id="e7_line" x1="377.7997741699219" y1="391.3042297363281" x2="372.7997741699219" y2="65.30464172363281" style="stroke:red;fill:none;stroke-width:1px;" transform="matrix(1.50884 -0.00185957 0.00185957 1.50884 -41.5098 10.4921)"/><text style="fill:black;font-family:Arial;font-size:20px;" x="142.80014038085938" y="240.30455017089844" id="e7_texte" transform="matrix(1.50884 -0.00185957 0.00185957 1.50884 -41.5098 10.4921)">Class 1</text><text style="fill:black;font-family:Arial;font-size:20px;" x="527.7999267578125" y="234.3046112060547" id="e9_texte" transform="matrix(1.50884 -0.00185957 0.00185957 1.50884 -41.5098 10.4921)"><tspan x="527.7999267578125" id="e9_tspan">Class 0</tspan></text><path d="M5.015394266867723,-5.372043022620353l0,0a0.7500000000000216,0.7500000000000216,0,0,0,-0.9999999999999982,0.5999999999999952v2.3000000000000043a0.7000000000000006,0.7000000000000006,0,0,1,-0.5000000000000004,0.70000000000001a0.7000000000000006,0.7000000000000006,0,0,1,0.5000000000000004,0.70000000000001v2.3000000000000025a0.7500000000000216,0.7500000000000216,0,0,0,0.9999999999999982,0.6000000000000036a0.650000000000035,0.650000000000035,0,0,1,-0.6999999999999993,-0.7000000000000017v-2.2000000000000055a0.6700000000000388,0.6700000000000388,0,0,0,-0.5999999999999996,-0.7000000000000128a0.6700000000000388,0.6700000000000388,0,0,0,0.5999999999999996,-0.7000000000000122v-2.200000000000001a0.650000000000035,0.650000000000035,0,0,1,0.6999999999999993,-0.7000000000000011Z" style="fill:black; stroke:black; vector-effect:non-scaling-stroke;stroke-width:1px;" id="e9_shape" transform="matrix(0.256894 -44.9066 57.9969 0.170285 641.292 844.094)"/><text style="fill:black;font-family:Arial;font-size:20px;" x="188.80015563964844" y="483.3042297363281" id="e11_texte" transform="matrix(1.50884 -0.00185957 0.00185957 1.50884 -41.5098 10.4921)">Any hyperplane here will get the label correct</text><line id="e11_line" x1="474.7999267578125" y1="40.3045768737793" x2="381.7997741699219" y2="110.30470275878906" style="stroke:black;fill:none;stroke-width:2.52px;marker-end:url(#arrow15-12-right);" transform="matrix(1.50884 -0.00185957 0.00185957 1.50884 -41.5098 10.4921)"/><text style="fill:black;font-family:Arial;font-size:20px;" x="492.800048828125" y="35.304561614990234" id="e12_texte" transform="matrix(1.50884 -0.00185957 0.00185957 1.50884 -41.5098 10.4921)"><tspan x="480.8000793457031" id="e12_tspan">The 'best' hyperplane </tspan><tspan x="484.800048828125" dy="1.25em" id="e13_tspan">will be around here</tspan></text><path d="M19.958081001248907,3.7915673246324193l0,0a0.7500000000000216,0.7500000000000216,0,0,0,-0.9999999999999858,0.6000000000000103v2.299999999999991a0.7000000000000006,0.7000000000000006,0,0,1,-0.5000000000000142,0.7000000000000108a0.7000000000000006,0.7000000000000006,0,0,1,0.5000000000000142,0.6999999999999993v2.3000000000000007a0.7500000000000216,0.7500000000000216,0,0,0,0.9999999999999858,0.6000000000000014a0.6500000000000486,0.6500000000000486,0,0,1,-0.6999999999999886,-0.7000000000000011v-2.200000000000003a0.6700000000000583,0.6700000000000583,0,0,0,-0.6000000000000192,-0.6999999999999975a0.6700000000000583,0.6700000000000583,0,0,0,0.6000000000000192,-0.7000000000000108v-2.200000000000002a0.6500000000000486,0.6500000000000486,0,0,1,0.6999999999999886,-0.7000000000000037Z" style="fill:red; stroke:red; vector-effect:non-scaling-stroke;stroke-width:1px;" id="e13_shape" transform="matrix(-44.8995 -0.903598 0.91973 -62.037 1839.16 831.093)"/><text style="fill:black;font-family:Arial;font-size:20px;" x="744.7999267578125" y="235.3045654296875" id="e13_texte" transform="matrix(1.50884 -0.00185957 0.00185957 1.50884 -41.5098 10.4921)"><tspan x="724.7999267578125" id="e14_tspan">Example of 'nice' </tspan><tspan x="725.7999267578125" dy="1.25em" id="e15_tspan">data structure</tspan></text><path d="M545.018716623702,222.50249295906133c-14.451659772846824,141.4801111283765,5.1007954507291515,190.29321561623033,92.72194105500193,191.5139430301524" style="fill: none; stroke: black; stroke-width: 2.52px;marker-end:url(#arrow15-12-right);" id="e15_arc3" transform="matrix(-0.498489 -1.43842 1.57518 -0.455567 61.2782 1535.65)"/><text style="fill:black;font-family:Arial;font-size:20px;" x="42.80015563964844" y="394.3042297363281" id="e15_texte" transform="matrix(1.50884 -0.00185957 0.00185957 1.50884 -41.5098 10.4921)"><tspan x="42.80015563964844" id="e16_tspan">Example </tspan><tspan x="42.80015563964844" dy="1.25em" id="e17_tspan">area </tspan><tspan x="42.80015563964844" dy="1.25em" id="e18_tspan">near </tspan><tspan x="42.80015563964844" dy="1.25em" id="e19_tspan">classes</tspan></text></svg>