<svg xmlns="http://www.w3.org/2000/svg" xmlns:xlink="http://www.w3.org/1999/xlink" width="1310px" height="800px" viewBox="0 0  1310 800" preserveAspectRatio="xMidYMid meet" ><rect id="svgEditorBackground" x="0" y="0" width="1310" height="800" style="fill: none; stroke: none;"/><defs id="svgEditorDefs"><polygon id="svgEditorShapeDefs" style="fill:rosybrown;stroke:black;vector-effect:non-scaling-stroke;stroke-width:1px;"/><marker id="arrow15-12-right" markerHeight="12" markerUnits="strokeWidth" markerWidth="15" orient="auto" refX="-3" refY="0" viewBox="-15 -5 20 20"><path d="M -15 -5 L 0 0 L -15 5 z" fill="black"/></marker><marker id="arrow20-16-left" markerHeight="16" markerUnits="strokeWidth" markerWidth="20" orient="auto" refX="3" refY="0" viewBox="0 -5 20 20"><path d="M 15 -5 L 0 0 L 15 5 z" fill="black"/></marker><marker id="arrow15-12-left" markerHeight="12" markerUnits="strokeWidth" markerWidth="15" orient="auto" refX="3" refY="0" viewBox="0 -5 20 20"><path d="M 15 -5 L 0 0 L 15 5 z" fill="black"/></marker></defs><line id="e4_line" x1="247.05545043945312" y1="374.88238525390625" x2="242.05540466308594" y2="48.882816314697266" style="stroke:red;fill:none;stroke-width:1px;" transform="matrix(1.87137 -0.00230638 0.00230638 1.87137 -96.083 8.21747)"/><line id="e9_line" x1="344.05572509765625" y1="23.882749557495117" x2="251.05548095703125" y2="93.88287353515625" style="stroke:black;fill:none;stroke-width:2.52px;marker-end:url(#arrow15-12-right);" transform="matrix(1.87137 -0.00230638 0.00230638 1.87137 -96.083 8.21747)"/><text style="fill:black;font-family:Arial;font-size:20px;" x="140.69349670410156" y="390.093994140625" id="e18_texte" transform="matrix(1.87137 -0.00230638 0.00230638 1.87137 -96.083 8.21747)"><tspan x="140.69349670410156">High flip</tspan><tspan x="140.69349670410156" dy="1.25em">probability</tspan></text><ellipse id="e3_ellipse" cx="151.5716552734375" cy="212.66038513183594" style="fill:white;stroke:black;stroke-width:1px;" rx="91" ry="142" transform="matrix(1.87137 -0.00230638 0.00230638 1.87137 -96.083 8.21747)"/><ellipse id="e4_ellipse" cx="336.9570007324219" cy="209.43887329101562" style="fill:white;stroke:black;stroke-width:1px;" rx="91" ry="142" transform="matrix(1.87137 -0.00230638 0.00230638 1.87137 -96.083 8.21747)"/><line id="e7_line" x1="247.05545043945312" y1="374.88238525390625" x2="242.05540466308594" y2="48.882816314697266" style="stroke:red;fill:none;stroke-width:2px;" transform="matrix(1.87137 -0.00230638 0.00230638 1.87137 -96.083 8.21747)"/><text style="fill:black;font-family:Arial;font-size:20px;" x="106.45887756347656" y="215.85552978515625" id="e7_texte" transform="matrix(1.87137 -0.00230638 0.00230638 1.87137 -96.083 8.21747)">Class 1</text><text style="fill:black;font-family:Arial;font-size:20px;" x="311.4352111816406" y="214.57102966308594" id="e9_texte" transform="matrix(1.87137 -0.00230638 0.00230638 1.87137 -96.083 8.21747)"><tspan x="311.4352111816406" id="e9_tspan">Class 0</tspan></text><line id="e11_line" x1="344.05572509765625" y1="23.882749557495117" x2="251.05548095703125" y2="93.88287353515625" style="stroke:black;fill:none;stroke-width:2.52px;marker-end:url(#arrow15-12-right);" transform="matrix(1.87137 -0.00230638 0.00230638 1.87137 -96.083 8.21747)"/><text style="fill:black;font-family:Arial;font-size:20px;" x="362.05584716796875" y="18.882736206054688" id="e12_texte" transform="matrix(1.87137 -0.00230638 0.00230638 1.87137 -96.083 8.21747)"><tspan x="350.0558776855469" id="e12_tspan">Only one hyperplane</tspan><tspan x="350.0558776855469" dy="1.25em">separates classes</tspan></text><path d="M27.69765804742501,4.00984497019563l0,0a0.7500000000000216,0.7500000000000216,0,0,0,-0.9999999999999858,0.6000000000000263v2.29999999999999a0.7000000000000006,0.7000000000000006,0,0,1,-0.5000000000000142,0.70000000000001a0.7000000000000006,0.7000000000000006,0,0,1,0.5000000000000142,0.699999999999994v2.3000000000000007a0.7500000000000216,0.7500000000000216,0,0,0,0.9999999999999858,0.6000000000000032a0.6500000000000486,0.6500000000000486,0,0,1,-0.699999999999978,-0.7000000000000028v-2.2000000000000046a0.6700000000001541,0.6700000000001541,0,0,0,-0.6000000000000156,-0.6999999999999904a0.6700000000001541,0.6700000000001541,0,0,0,0.6000000000000156,-0.6999999999999957v-2.1999999999999993a0.6500000000000486,0.6500000000000486,0,0,1,0.699999999999978,-0.7000000000000295Z" style="fill:red; stroke:red; vector-effect:non-scaling-stroke;stroke-width:1px;" id="e13_shape" transform="matrix(-55.6876 -1.12071 1.14072 -76.9427 2236.45 1025.99)"/><text style="fill:black;font-family:Arial;font-size:20px;" x="744.7999267578125" y="235.3045654296875" id="e13_texte" transform="matrix(1.50884 -0.00185957 0.00185957 1.50884 -41.5098 10.4921)"/><text style="fill:black;font-family:Arial;font-size:26px;" x="695.9332275390625" y="242.2152862548828" id="e22_texte" transform="matrix(1.393 0 0 1.393 -165.775 66.6575)"><tspan x="695.9332275390625">Example of 'bad'</tspan><tspan x="695.9332275390625" dy="1.25em">data structure</tspan></text><ellipse id="e23_ellipse" cx="326.6972351074219" cy="344.4653015136719" style="fill:red;stroke:maroon;stroke-width:3px;fill-opacity:0.2;" rx="62" ry="130" transform="matrix(1.24027 0 0 1.24027 -44.5996 -4.79563)"/><path d="M541.3218660638921,333.99516137787293c9.048469227525516,36.549063991596256,20.975056627096933,43.58830697831655,87.36335798526386,43.80321666744186" style="fill: none; stroke: black; stroke-width: 2.52px;marker-end:url(#arrow15-12-right);" id="e4_arc3" transform="matrix(-0.618262 -1.78403 1.95365 -0.565027 31.402 1899.83)"/></svg>