<?xml version="1.0" encoding="UTF-8" standalone="no"?>
<!DOCTYPE svg PUBLIC "-//W3C//DTD SVG 1.1//EN"
"http://www.w3.org/Graphics/SVG/1.1/DTD/svg11.dtd">


<!-- Page 1 -->
<svg x="0" y="0" width="909" height="1286" viewBox="0 0 909 1286" version="1.1" xmlns="http://www.w3.org/2000/svg" xmlns:xlink="http://www.w3.org/1999/xlink"
style="display: block;margin-left: auto;margin-right: auto;">
<defs>
<clipPath id="c_1"><path d="M0,0H909V1286H0Z"/></clipPath>
<style type="text/css"><![CDATA[
text { white-space: pre; }
path, image { pointer-events: none; }

.s1{
font-size: 16.81px;
font-family: Carlito_9;
fill: #000000;
}

.g0{
fill: none;
stroke: #000000;
stroke-width: 0.763;
stroke-linecap: butt;
stroke-linejoin: miter;
stroke-miterlimit: 7;
}
.g1{
fill: none;
stroke: #FF0000;
stroke-width: 0.763;
stroke-linecap: butt;
stroke-linejoin: miter;
stroke-miterlimit: 7;
}
.g2{
fill: none;
stroke: #0070C0;
stroke-width: 0.763;
stroke-linecap: butt;
stroke-linejoin: miter;
stroke-miterlimit: 7;
}
.g3{
fill: none;
stroke: #00B050;
stroke-width: 0.763;
stroke-linecap: butt;
stroke-linejoin: miter;
stroke-miterlimit: 7;
}
.g4{
fill: #FFFFFF;
}
.g5{
fill: none;
stroke: #000000;
stroke-width: 1.527;
stroke-linecap: butt;
stroke-linejoin: miter;
stroke-miterlimit: 7;
}
.g6{
}

]]></style>

</defs>
<path d="M0,0
L0,1286
L909,1286
L909,0 Z " 
fill="#FFFFFF" stroke="none"/>
<g clip-path="url(#c_1)">
<text x="210" y="504" dx="0,0,0,0,-.2,0,0,0,0" class="s1">= Class 1</text>
<text x="214" y="538" dx="0,0,0,0,-.2,0,0,0,0,0" class="s1">= Class 2 </text>
<text x="214" y="573" dx="0,0,0,0,0,0,-.1,0,.1,0,0,-.2,0,0,0,0,0,0,.1,0" class="s1">= Linear Classiﬁer 1</text>
<text x="214" y="595" dx="0,0,0,0,0,0,-.1,0,.1,0,0,-.2,0,0,0,0,0,0,.1,0" class="s1">= Linear Classiﬁer 2</text>
<text x="214" y="617" dx="0,0,0,0,0,0,-.1,0,.1,0,0,-.2,0,0,0,0,0,0,.1,0,-.1" class="s1">= Linear Classiﬁer 3 </text>
<path d="M144.9,104.3l-2.2,310.6m329.4,-2.4l-331.2,1.1" class="g0"/>
<path d="M201.5,98.6L418,440.9" class="g1"/>
<path d="M432.9,110L186.5,444.4" class="g2"/>
<path d="M123.8,290l419.9,43.5" class="g3"/>
<path fill-rule="evenodd" d="M198.2,170.1v-1.5l.1,-.8l.2,-.8l.1,-.8l.2,-.7l.3,-.7l.3,-.8l.3,-.7l.4,-.7l.3,-.7l.5,-.6l.5,-.7l.4,-.6l.6,-.5l.5,-.6l.6,-.5l.6,-.5l.6,-.5l.7,-.4l.7,-.4l.7,-.4l.7,-.3l.7,-.3l.7,-.2l.8,-.3l.8,-.2l.7,-.1l.8,-.1l.8,-.1h1.6l.8,.1l.8,.1l.8,.1l.8,.2l.7,.3l.8,.2l.7,.3l.7,.4l.8,.4l.7,.4l.6,.5l.7,.4l.6,.6l.5,.5l.6,.6l.6,.6l.4,.7l.5,.6l.5,.7l.3,.7l.3,.8l.3,.7l.3,.8l.3,.8l.1,.7l.2,.8l.1,.8l.1,.8v1.7l-.1,.7v.9l-.2,.8l-.2,.7l-.3,.9l-.2,.7l-.3,.7l-.4,.8l-.3,.7l-.5,.6l-.5,.7l-.4,.6l-.6,.7l-.5,.6l-.6,.6l-.6,.4l-.6,.6l-.7,.4l-.7,.4l-.7,.5l-.8,.3l-.7,.3l-.8,.3l-.7,.2l-.8,.2l-.8,.1l-.8,.2H212l-.9,-.1l-.7,-.2l-.8,-.2l-.8,-.2l-.8,-.2l-.7,-.3l-.7,-.4l-.7,-.4l-.7,-.5l-.7,-.4l-.6,-.5l-.6,-.5l-.6,-.6l-.7,-.6l-.4,-.6l-.5,-.6l-.5,-.7l-.4,-.7l-.4,-.7l-.3,-.7l-.4,-.8l-.3,-.7l-.2,-.8l-.1,-.8l-.2,-.7l-.1,-.9l-.1,-.7v-.9h.1Z" class="g4"/>
<path d="M198.2,170.1v0v-1.5l.1,-.8l.2,-.8l.1,-.8l.2,-.7l.3,-.7l.3,-.8l.3,-.7l.4,-.7l.3,-.7l.5,-.6l.5,-.7l.4,-.6l.6,-.5l.5,-.6l.6,-.5l.6,-.5l.6,-.5l.7,-.4l.7,-.4l.7,-.4l.7,-.3l.7,-.3l.7,-.2l.8,-.3l.8,-.2l.7,-.1l.8,-.1l.8,-.1h1.6l.8,.1l.8,.1l.8,.1l.8,.2l.7,.3l.8,.2l.7,.3l.7,.4l.8,.4l.7,.4l.6,.5l.7,.4l.6,.6l.5,.5l.6,.6l.6,.6l.4,.7l.5,.6l.5,.7l.3,.7l.3,.8l.3,.7l.3,.8l.3,.8l.1,.7l.2,.8l.1,.8l.1,.8v1.7l-.1,.7v.9l-.2,.8l-.2,.7l-.3,.9l-.2,.7l-.3,.7l-.4,.8l-.3,.7l-.5,.6l-.5,.7l-.4,.6l-.6,.7l-.5,.6l-.6,.6l-.6,.4l-.6,.6l-.7,.4l-.7,.4l-.7,.5l-.8,.3l-.7,.3l-.8,.3l-.7,.2l-.8,.2l-.8,.1l-.8,.2H212l-.9,-.1l-.7,-.2l-.8,-.2l-.8,-.2l-.8,-.2l-.7,-.3l-.7,-.4l-.7,-.4l-.7,-.5l-.7,-.4l-.6,-.5l-.6,-.5l-.6,-.6l-.7,-.6l-.4,-.6l-.5,-.6l-.5,-.7l-.4,-.7l-.4,-.7l-.3,-.7l-.4,-.8l-.3,-.7l-.2,-.8l-.1,-.8l-.2,-.7l-.1,-.9l-.1,-.7v-.9h.1Z" class="g5"/>
<path fill-rule="evenodd" d="M439.2,172.4v-1.5l.1,-.9l.2,-.7l.1,-.8l.2,-.7l.3,-.7l.3,-.8l.3,-.7l.4,-.7l.4,-.7l.4,-.7l.5,-.6l.4,-.6l.6,-.5l.5,-.6l.6,-.6l.6,-.4l.6,-.5l.7,-.4l.7,-.4l.7,-.4l.7,-.3l.7,-.3l.7,-.2l.8,-.3l.8,-.2l.7,-.1l.8,-.1l.8,-.1h1.6l.8,.1l.8,.1l.8,.1l.8,.2l.7,.3l.8,.2l.8,.3l.6,.4l.8,.4l.7,.4l.6,.5l.7,.4l.6,.6l.5,.5l.6,.6l.6,.6l.4,.6l.5,.7l.5,.7l.3,.7l.3,.8l.4,.7l.3,.8l.2,.8l.1,.7l.2,.8l.1,.8l.1,.8v1.7l-.1,.7v.9l-.2,.7l-.2,.8l-.2,.8l-.3,.8l-.3,.7l-.4,.8l-.3,.6l-.5,.7l-.5,.7l-.4,.6l-.6,.6l-.5,.7l-.6,.6l-.6,.4l-.6,.6l-.7,.4l-.7,.4l-.7,.5l-.7,.3l-.8,.3l-.8,.3l-.7,.2l-.8,.2l-.8,.1l-.8,.2H453l-.9,-.1l-.7,-.2l-.8,-.2l-.8,-.2l-.8,-.3l-.7,-.3l-.7,-.3l-.7,-.4l-.7,-.5l-.7,-.4l-.6,-.5l-.6,-.5l-.6,-.6l-.6,-.6l-.5,-.6l-.5,-.6l-.5,-.7l-.4,-.7l-.4,-.7l-.3,-.7l-.3,-.8l-.4,-.8l-.2,-.7l-.1,-.8l-.2,-.7l-.1,-.9l-.1,-.7v-.9h.1Z" class="g6"/>
<path d="M439.2,172.4v0v-1.5l.1,-.9l.2,-.7l.1,-.8l.2,-.7l.3,-.7l.3,-.8l.3,-.7l.4,-.7l.4,-.7l.4,-.7l.5,-.6l.4,-.6l.6,-.5l.5,-.6l.6,-.6l.6,-.4l.6,-.5l.7,-.4l.7,-.4l.7,-.4l.7,-.3l.7,-.3l.7,-.2l.8,-.3l.8,-.2l.7,-.1l.8,-.1l.8,-.1h1.6l.8,.1l.8,.1l.8,.1l.8,.2l.7,.3l.8,.2l.8,.3l.6,.4l.8,.4l.7,.4l.6,.5l.7,.4l.6,.6l.5,.5l.6,.6l.6,.6l.4,.6l.5,.7l.5,.7l.3,.7l.3,.8l.4,.7l.3,.8l.2,.8l.1,.7l.2,.8l.1,.8l.1,.8v1.7l-.1,.7v.9l-.2,.7l-.2,.8l-.2,.8l-.3,.8l-.3,.7l-.4,.8l-.3,.6l-.5,.7l-.5,.7l-.4,.6l-.6,.6l-.5,.7l-.6,.6l-.6,.4l-.6,.6l-.7,.4l-.7,.4l-.7,.5l-.7,.3l-.8,.3l-.8,.3l-.7,.2l-.8,.2l-.8,.1l-.8,.2H453l-.9,-.1l-.7,-.2l-.8,-.2l-.8,-.2l-.8,-.3l-.7,-.3l-.7,-.3l-.7,-.4l-.7,-.5l-.7,-.4l-.6,-.5l-.6,-.5l-.6,-.6l-.6,-.6l-.5,-.6l-.5,-.6l-.5,-.7l-.4,-.7l-.4,-.7l-.3,-.7l-.3,-.8l-.4,-.8l-.2,-.7l-.1,-.8l-.2,-.7l-.1,-.9l-.1,-.7v-.9h.1Z" class="g5"/>
<path fill-rule="evenodd" d="M199.3,347.7V347l.1,-.8l.1,-.8l.1,-.8l.2,-.8l.2,-.7l.2,-.7l.3,-.8l.3,-.7l.4,-.7l.4,-.7l.4,-.6l.5,-.6l.5,-.7l.5,-.5l.5,-.6l.6,-.5l.7,-.5l.6,-.5l.7,-.4l.6,-.4l.7,-.4l.7,-.3l.8,-.3l.7,-.2l.7,-.2l.8,-.3l.8,-.1l.7,-.1l.9,-.1h1.6l.7,.1l.9,.1l.7,.1l.8,.3l.8,.2l.7,.2l.8,.3l.7,.4l.7,.4l.7,.4l.6,.5l.7,.5l.6,.5l.6,.5l.6,.6l.5,.6l.5,.7l.4,.6l.5,.7l.4,.7l.3,.8l.3,.7l.3,.8l.2,.8l.2,.7l.1,.8l.2,.8l.1,.8v1.7l-.1,.8l-.1,.8l-.1,.8l-.3,.7l-.2,.9l-.2,.7l-.3,.7l-.4,.8l-.4,.7l-.5,.6l-.4,.7l-.5,.6l-.5,.7l-.5,.6l-.7,.6l-.6,.4l-.6,.6l-.7,.4l-.7,.4l-.6,.5l-.8,.3l-.8,.3l-.7,.3l-.8,.2l-.8,.2l-.7,.1l-.9,.2l-.7,.1h-1.7l-.8,-.1l-.8,-.1l-.8,-.2l-.7,-.2l-.9,-.2l-.7,-.2l-.7,-.3l-.8,-.4l-.7,-.4l-.7,-.5l-.7,-.4l-.6,-.5l-.6,-.5l-.6,-.6l-.6,-.6l-.5,-.6l-.5,-.6l-.5,-.7l-.3,-.7l-.5,-.6l-.3,-.8l-.3,-.8l-.3,-.7l-.2,-.8l-.2,-.8l-.1,-.7l-.2,-.9l-.1,-.7v-.9h.1Z" class="g6"/>
<path d="M199.3,347.7v0V347l.1,-.8l.1,-.8l.1,-.8l.2,-.8l.2,-.7l.2,-.7l.3,-.8l.3,-.7l.4,-.7l.4,-.7l.4,-.6l.5,-.6l.5,-.7l.5,-.5l.5,-.6l.6,-.5l.7,-.5l.6,-.5l.7,-.4l.6,-.4l.7,-.4l.7,-.3l.8,-.3l.7,-.2l.7,-.2l.8,-.3l.8,-.1l.7,-.1l.9,-.1h1.6l.7,.1l.9,.1l.7,.1l.8,.3l.8,.2l.7,.2l.8,.3l.7,.4l.7,.4l.7,.4l.6,.5l.7,.5l.6,.5l.6,.5l.6,.6l.5,.6l.5,.7l.4,.6l.5,.7l.4,.7l.3,.8l.3,.7l.3,.8l.2,.8l.2,.7l.1,.8l.2,.8l.1,.8v1.7l-.1,.8l-.1,.8l-.1,.8l-.3,.7l-.2,.9l-.2,.7l-.3,.7l-.4,.8l-.4,.7l-.5,.6l-.4,.7l-.5,.6l-.5,.7l-.5,.6l-.7,.6l-.6,.4l-.6,.6l-.7,.4l-.7,.4l-.6,.5l-.8,.3l-.8,.3l-.7,.3l-.8,.2l-.8,.2l-.7,.1l-.9,.2l-.7,.1h-1.7l-.8,-.1l-.8,-.1l-.8,-.2l-.7,-.2l-.9,-.2l-.7,-.2l-.7,-.3l-.8,-.4l-.7,-.4l-.7,-.5l-.7,-.4l-.6,-.5l-.6,-.5l-.6,-.6l-.6,-.6l-.5,-.6l-.5,-.6l-.5,-.7l-.3,-.7l-.5,-.6l-.3,-.8l-.3,-.8l-.3,-.7l-.2,-.8l-.2,-.8l-.1,-.7l-.2,-.9l-.1,-.7v-.9h.1Z" class="g5"/>
<path fill-rule="evenodd" d="M439.2,348.6V347l.1,-.8l.2,-.8l.1,-.7l.2,-.8l.3,-.7l.3,-.7l.3,-.7l.4,-.7l.4,-.7l.4,-.7l.5,-.6l.4,-.6l.6,-.6l.5,-.6l.6,-.5l.6,-.5l.6,-.4l.7,-.5l.7,-.4l.7,-.3l.7,-.3l.7,-.4l.7,-.2l.8,-.2l.8,-.2l.7,-.2l.8,-.1h3.2l.8,.1l.8,.2l.8,.2l.7,.2l.8,.2l.8,.4l.6,.3l.8,.4l.7,.5l.6,.4l.7,.5l.6,.5l.5,.6l.6,.6l.6,.6l.4,.6l.5,.7l.5,.7l.3,.7l.3,.7l.4,.8l.3,.8l.2,.7l.1,.8l.2,.7l.1,.9l.1,.7v1.7l-.1,.8v.8l-.2,.8l-.2,.8l-.2,.8l-.3,.8l-.3,.7l-.4,.7l-.3,.7l-.5,.7l-.5,.7l-.4,.6l-.6,.6l-.5,.6l-.6,.6l-.6,.5l-.6,.5l-.7,.5l-.7,.4l-.7,.4l-.7,.3l-.8,.3l-.8,.3l-.7,.3l-.8,.1l-.8,.2l-.8,.1l-.8,.1h-1.6l-.8,-.1l-.9,-.1l-.7,-.1l-.8,-.2l-.8,-.3L449,363l-.7,-.3l-.7,-.4l-.7,-.4l-.7,-.4l-.7,-.5l-.6,-.4l-.6,-.6l-.6,-.5l-.6,-.6l-.5,-.6l-.5,-.6l-.5,-.7l-.4,-.7l-.4,-.7l-.3,-.8l-.3,-.7l-.4,-.8l-.2,-.8l-.1,-.7l-.2,-.8l-.1,-.8l-.1,-.8v-.8h.1Z" class="g4"/>
<path d="M439.2,348.6v0V347l.1,-.8l.2,-.8l.1,-.7l.2,-.8l.3,-.7l.3,-.7l.3,-.7l.4,-.7l.4,-.7l.4,-.7l.5,-.6l.4,-.6l.6,-.6l.5,-.6l.6,-.5l.6,-.5l.6,-.4l.7,-.5l.7,-.4l.7,-.3l.7,-.3l.7,-.4l.7,-.2l.8,-.2l.8,-.2l.7,-.2l.8,-.1h3.2l.8,.1l.8,.2l.8,.2l.7,.2l.8,.2l.8,.4l.6,.3l.8,.4l.7,.5l.6,.4l.7,.5l.6,.5l.5,.6l.6,.6l.6,.6l.4,.6l.5,.7l.5,.7l.3,.7l.3,.7l.4,.8l.3,.8l.2,.7l.1,.8l.2,.7l.1,.9l.1,.7v1.7l-.1,.8v.8l-.2,.8l-.2,.8l-.2,.8l-.3,.8l-.3,.7l-.4,.7l-.3,.7l-.5,.7l-.5,.7l-.4,.6l-.6,.6l-.5,.6l-.6,.6l-.6,.5l-.6,.5l-.7,.5l-.7,.4l-.7,.4l-.7,.3l-.8,.3l-.8,.3l-.7,.3l-.8,.1l-.8,.2l-.8,.1l-.8,.1h-1.6l-.8,-.1l-.9,-.1l-.7,-.1l-.8,-.2l-.8,-.3L449,363l-.7,-.3l-.7,-.4l-.7,-.4l-.7,-.4l-.7,-.5l-.6,-.4l-.6,-.6l-.6,-.5l-.6,-.6l-.5,-.6l-.5,-.6l-.5,-.7l-.4,-.7l-.4,-.7l-.3,-.8l-.3,-.7l-.4,-.8l-.2,-.8l-.1,-.7l-.2,-.8l-.1,-.8l-.1,-.8v-.8h.1Z" class="g5"/>
<path fill-rule="evenodd" d="M172.9,498v-.8l.1,-.7l.1,-.9l.2,-.8l.1,-.7l.2,-.8l.3,-.7l.3,-.7l.3,-.7l.4,-.7l.3,-.7l.5,-.7l.5,-.6l.4,-.6l.5,-.5l.6,-.6l.6,-.6l.6,-.4l.6,-.5l.7,-.5l.7,-.3l.7,-.4l.7,-.3l.7,-.3l.7,-.3l.8,-.2l.7,-.2l.8,-.2l.8,-.1H190l.8,.1l.8,.2l.7,.2l.8,.2l.8,.3l.7,.3l.7,.4l.8,.3l.7,.5l.6,.5l.7,.4l.6,.5l.5,.6l.6,.6l.6,.6l.4,.6l.5,.7l.4,.7l.4,.7l.3,.7l.3,.8l.3,.8l.3,.7l.1,.8l.2,.8l.1,.8l.1,.8v1.6l-.1,.8v.8l-.2,.8l-.2,.8l-.3,.8l-.2,.8l-.3,.7l-.4,.7l-.4,.7l-.4,.7l-.5,.7l-.4,.6l-.6,.6l-.5,.6l-.6,.6l-.6,.5l-.6,.5l-.7,.5l-.7,.4l-.7,.4l-.8,.3l-.7,.3l-.8,.3l-.8,.3l-.7,.1l-.8,.2l-.8,.1l-.8,.1h-1.7l-.7,-.1h-.9l-.7,-.2l-.8,-.2l-.8,-.3l-.8,-.2l-.7,-.3l-.8,-.4l-.6,-.4l-.7,-.4l-.7,-.5l-.6,-.4l-.6,-.6l-.6,-.5l-.7,-.6l-.4,-.6l-.6,-.6l-.4,-.7l-.4,-.7l-.5,-.7l-.3,-.8l-.3,-.7l-.3,-.8l-.2,-.7l-.1,-.8l-.2,-.8l-.2,-.8V498Z" class="g4"/>
<path d="M172.9,498v0v-.8l.1,-.7l.1,-.9l.2,-.8l.1,-.7l.2,-.8l.3,-.7l.3,-.7l.3,-.7l.4,-.7l.3,-.7l.5,-.7l.5,-.6l.4,-.6l.5,-.5l.6,-.6l.6,-.6l.6,-.4l.6,-.5l.7,-.5l.7,-.3l.7,-.4l.7,-.3l.7,-.3l.7,-.3l.8,-.2l.7,-.2l.8,-.2l.8,-.1H190l.8,.1l.8,.2l.7,.2l.8,.2l.8,.3l.7,.3l.7,.4l.8,.3l.7,.5l.6,.5l.7,.4l.6,.5l.5,.6l.6,.6l.6,.6l.4,.6l.5,.7l.4,.7l.4,.7l.3,.7l.3,.8l.3,.8l.3,.7l.1,.8l.2,.8l.1,.8l.1,.8v1.6l-.1,.8v.8l-.2,.8l-.2,.8l-.3,.8l-.2,.8l-.3,.7l-.4,.7l-.4,.7l-.4,.7l-.5,.7l-.4,.6l-.6,.6l-.5,.6l-.6,.6l-.6,.5l-.6,.5l-.7,.5l-.7,.4l-.7,.4l-.8,.3l-.7,.3l-.8,.3l-.8,.3l-.7,.1l-.8,.2l-.8,.1l-.8,.1h-1.7l-.7,-.1h-.9l-.7,-.2l-.8,-.2l-.8,-.3l-.8,-.2l-.7,-.3l-.8,-.4l-.6,-.4l-.7,-.4l-.7,-.5l-.6,-.4l-.6,-.6l-.6,-.5l-.7,-.6l-.4,-.6l-.6,-.6l-.4,-.7l-.4,-.7l-.5,-.7l-.3,-.8l-.3,-.7l-.3,-.8l-.2,-.7l-.1,-.8l-.2,-.8l-.2,-.8V498Z" class="g5"/>
<path fill-rule="evenodd" d="M173.2,533.9v-.8l.1,-.7v-.9l.2,-.7l.1,-.8l.3,-.8l.2,-.7l.3,-.7l.3,-.7l.4,-.7l.4,-.7l.4,-.7l.5,-.6l.4,-.6l.6,-.5l.5,-.6l.6,-.6l.6,-.4l.6,-.5l.7,-.5l.7,-.3l.7,-.4l.7,-.3l.8,-.3l.6,-.3l.8,-.2l.8,-.2l.7,-.2h.8l.8,-.1h1.6l.8,.1h.8l.8,.2l.8,.2l.7,.2l.8,.3l.8,.3l.7,.4l.7,.3l.7,.5l.6,.5l.7,.4l.6,.5l.6,.6l.6,.6l.5,.6l.5,.6l.4,.7l.5,.7l.4,.7l.3,.7l.3,.8l.3,.8l.2,.7l.2,.8l.1,.8l.2,.8v3.2l-.1,.9l-.2,.7l-.2,.8l-.2,.8l-.3,.8l-.3,.7l-.3,.7l-.4,.7l-.5,.7l-.4,.7l-.5,.6l-.5,.6l-.6,.6l-.6,.6l-.6,.5l-.6,.5l-.7,.5l-.7,.4l-.7,.4l-.7,.3l-.8,.3l-.8,.3l-.7,.3l-.8,.1l-.8,.2l-.8,.1l-.8,.1h-1.6l-.8,-.1h-.8l-.8,-.2l-.8,-.2l-.8,-.3l-.8,-.2l-.7,-.3l-.7,-.4l-.7,-.3l-.7,-.5l-.7,-.5l-.6,-.4l-.6,-.6l-.6,-.5l-.6,-.6l-.5,-.6l-.5,-.6l-.5,-.7l-.4,-.7l-.4,-.7l-.3,-.8l-.3,-.7l-.3,-.8l-.3,-.7l-.1,-.8l-.2,-.8l-.1,-.8l-.1,-.8v-.8h.1Z" class="g6"/>
<path d="M173.2,533.9v0v-.8l.1,-.7v-.9l.2,-.7l.1,-.8l.3,-.8l.2,-.7l.3,-.7l.3,-.7l.4,-.7l.4,-.7l.4,-.7l.5,-.6l.4,-.6l.6,-.5l.5,-.6l.6,-.6l.6,-.4l.6,-.5l.7,-.5l.7,-.3l.7,-.4l.7,-.3l.8,-.3l.6,-.3l.8,-.2l.8,-.2l.7,-.2h.8l.8,-.1h1.6l.8,.1h.8l.8,.2l.8,.2l.7,.2l.8,.3l.8,.3l.7,.4l.7,.3l.7,.5l.6,.5l.7,.4l.6,.5l.6,.6l.6,.6l.5,.6l.5,.6l.4,.7l.5,.7l.4,.7l.3,.7l.3,.8l.3,.8l.2,.7l.2,.8l.1,.8l.2,.8v3.2l-.1,.9l-.2,.7l-.2,.8l-.2,.8l-.3,.8l-.3,.7l-.3,.7l-.4,.7l-.5,.7l-.4,.7l-.5,.6l-.5,.6l-.6,.6l-.6,.6l-.6,.5l-.6,.5l-.7,.5l-.7,.4l-.7,.4l-.7,.3l-.8,.3l-.8,.3l-.7,.3l-.8,.1l-.8,.2l-.8,.1l-.8,.1h-1.6l-.8,-.1h-.8l-.8,-.2l-.8,-.2l-.8,-.3l-.8,-.2l-.7,-.3l-.7,-.4l-.7,-.3l-.7,-.5l-.7,-.5l-.6,-.4l-.6,-.6l-.6,-.5l-.6,-.6l-.5,-.6l-.5,-.6l-.5,-.7l-.4,-.7l-.4,-.7l-.3,-.8l-.3,-.7l-.3,-.8l-.3,-.7l-.1,-.8l-.2,-.8l-.1,-.8l-.1,-.8v-.8h.1Z" class="g5"/>
<path d="M159.3,569.4l42.4,.1" class="g2"/>
<path d="M159.3,590.4l42.4,.1" class="g1"/>
<path d="M160.2,613.4l42.4,.1" class="g3"/>

</g>

<!-- Any embedded fonts defined here -->
<style type="text/css" ><![CDATA[

@font-face {
	font-family: Carlito_9;
	src: url("fonts/Carlito_9.woff") format("woff");
}

]]></style>

</svg>
